<?xml version="1.0" encoding="UTF-8"?>
<svg version="1.1" xmlns="http://www.w3.org/2000/svg" width="320" height="240">
<path d="M0 0 C3.88743633 0.01834158 7.77463406 0.02050835 11.66210938 0.02026367 C14.1777364 0.02517802 16.69336184 0.03100598 19.20898438 0.0378418 C20.3489386 0.03895462 21.48889282 0.04006744 22.66339111 0.04121399 C50.69180449 0.20347297 50.69180449 0.20347297 57.21679688 5.4909668 C65.62216074 14.60082648 63.869527 30.20045487 63.88085938 41.76831055 C63.88186646 42.47935944 63.88287354 43.19040833 63.88391113 43.92300415 C63.85746308 71.48926761 63.85746308 71.48926761 56.63085938 79.20581055 C43.17828116 87.22011246 22.46374449 84.39219618 7.3605957 84.39111328 C3.9668311 84.39329545 0.57339481 84.41150732 -2.8203125 84.43041992 C-13.2847586 84.45943471 -23.70562901 84.30701323 -34.13867188 83.4440918 C-34.98862228 83.38311813 -35.83857269 83.32214447 -36.71427917 83.25932312 C-43.07728279 82.64434455 -46.92699392 80.51228244 -51.61914062 76.08081055 C-59.9854961 62.3360837 -57.04052331 38.56062776 -55.61914062 23.08081055 C-55.55750732 22.3118042 -55.49587402 21.54279785 -55.43237305 20.75048828 C-54.88294094 15.51576394 -53.79315802 10.33957752 -50.36914062 6.20581055 C-45.58619149 2.95839719 -41.54153246 1.4802231 -35.75976562 0.9675293 C-35.00044739 0.8922551 -34.24112915 0.8169809 -33.45880127 0.73942566 C-22.33880433 -0.22102417 -11.1510773 -0.05439895 0 0 Z " fill="#FE0101" transform="translate(156.369140625,77.794189453125)"/>
<path d="M0 0 C3.6950252 0.9237563 6.0488165 2.00768677 9.31640625 3.87109375 C10.32767578 4.44537109 11.33894531 5.01964844 12.38085938 5.61132812 C13.43080078 6.21396484 14.48074219 6.81660156 15.5625 7.4375 C17.14321289 8.3356543 17.14321289 8.3356543 18.75585938 9.25195312 C26.48458104 13.65638736 26.48458104 13.65638736 30 16 C30 16.66 30 17.32 30 18 C26.37410189 20.12425199 22.74448725 22.24196194 19.11132812 24.35375977 C17.87656828 25.0726867 16.64283141 25.79337363 15.41015625 26.51586914 C13.63549222 27.5556219 11.85721414 28.58893548 10.078125 29.62109375 C8.47565918 30.55586548 8.47565918 30.55586548 6.84082031 31.50952148 C4 33 4 33 0 34 C0 22.78 0 11.56 0 0 Z " fill="#FFF5F5" transform="translate(148,103)"/>
</svg>
