<?xml version="1.0" encoding="UTF-8"?>
<svg version="1.1" xmlns="http://www.w3.org/2000/svg" width="474" height="332">
<path d="M0 0 C156.42 0 312.84 0 474 0 C474 109.56 474 219.12 474 332 C317.58 332 161.16 332 0 332 C0 222.44 0 112.88 0 0 Z " fill="#FD0000" transform="translate(0,0)"/>
<path d="M0 0 C8.3173004 4.75274309 16.42230499 9.41764186 24.375 14.6875 C25.32632813 15.31269531 26.27765625 15.93789062 27.2578125 16.58203125 C29.35756626 17.96232623 31.45615059 19.34440142 33.55371094 20.72802734 C37.29486434 23.19582413 41.04166901 25.65497385 44.7890625 28.11328125 C45.45903259 28.55279114 46.12900269 28.99230103 46.8192749 29.44512939 C48.1894051 30.34394428 49.55954269 31.24274791 50.9296875 32.14154053 C53.00035514 33.50023303 55.07056014 34.8596276 57.140625 36.21923828 C66.12834742 42.121683 75.13139799 47.99991996 84.14404297 53.86425781 C90.90728304 58.2713755 97.63408122 62.73106599 104.33349609 67.23461914 C107.83825422 69.58573816 111.35313269 71.87147822 115 74 C113.47263563 78.15368602 110.87152804 79.7312583 107.25 82.125 C106.06303357 82.92072983 104.87686147 83.71764556 103.69140625 84.515625 C103.0792627 84.92490234 102.46711914 85.33417969 101.83642578 85.75585938 C98.91150385 87.73743371 96.05212799 89.8076921 93.1875 91.875 C78.66243214 102.28965447 63.78628837 112.1783438 48.90185547 122.06933594 C46.2144273 123.85733711 43.53018169 125.6499669 40.84765625 127.4453125 C33.85401526 132.12495494 26.85835839 136.78938641 19.734375 141.26953125 C17.58856282 142.62752382 15.45566696 144.00054334 13.328125 145.38671875 C12.37631348 146.0051062 12.37631348 146.0051062 11.40527344 146.63598633 C10.16206405 147.44445476 8.92044774 148.25537978 7.68066406 149.0690918 C5.12915905 150.72436794 2.90043724 152.03318759 0 153 C0 102.51 0 52.02 0 0 Z " fill="#FEFDFD" transform="translate(199,90)"/>
<path d="M0 0 C33.66 0 67.32 0 102 0 C102 0.66 102 1.32 102 2 C101.11965088 2.04487549 100.23930176 2.08975098 99.33227539 2.13598633 C63.18148052 2.8482001 63.18148052 2.8482001 31 17 C29.77410156 17.89138672 29.77410156 17.89138672 28.5234375 18.80078125 C8.43766177 36.30587682 4.11864473 71.41550999 2.3125 96.25 C2.19991277 98.16619047 2.09205515 100.08271347 2 102 C1.34 102 0.68 102 0 102 C0 68.34 0 34.68 0 0 Z " fill="#FDFBFB" transform="translate(0,0)"/>
<path d="M0 0 C40.26 0 80.52 0 122 0 C122 24.75 122 49.5 122 75 C121.34 75 120.68 75 120 75 C119.82984375 73.92363281 119.6596875 72.84726563 119.484375 71.73828125 C117.48771362 59.52944111 114.95315003 48.02413721 109.05078125 37.0234375 C108 35 108 35 107 32 C106.34 32 105.68 32 105 32 C103.95244255 30.85423404 102.96190283 29.6560644 102 28.4375 C85.36128818 9.10522622 55.79491308 5.64186566 31.85699463 3.83856201 C21.24612597 3.09189773 10.62373037 2.52721114 0 2 C0 1.34 0 0.68 0 0 Z " fill="#FDFAFA" transform="translate(352,0)"/>
<path d="M0 0 C0.66 0 1.32 0 2 0 C2.03963867 0.72251953 2.07927734 1.44503906 2.12011719 2.18945312 C4.15472314 48.90619223 4.15472314 48.90619223 25.31640625 89.5546875 C38.3404625 100.73543184 52.53383441 104.93046893 69.57421875 105.69140625 C72 106 72 106 75 108 C50.25 108 25.5 108 0 108 C0 72.36 0 36.72 0 0 Z " fill="#FDFBFA" transform="translate(0,224)"/>
<path d="M0 0 C0.66 0 1.32 0 2 0 C2 27.72 2 55.44 2 84 C-27.7 84 -57.4 84 -88 84 C-88 83.34 -88 82.68 -88 82 C-87.16976318 81.9498877 -86.33952637 81.89977539 -85.48413086 81.84814453 C-59.09990367 81.42602335 -59.09990367 81.42602335 -34 75 C-33.2884375 74.68160156 -32.576875 74.36320312 -31.84375 74.03515625 C-18.600095 66.73715622 -9.84753179 47.97960456 -5.7578125 33.92578125 C-2.75747813 22.8023975 -0.96434242 11.47059927 0 0 Z " fill="#FDF7F6" transform="translate(472,248)"/>
<path d="M0 0 C2.97 1.65 5.94 3.3 9 5 C9 5.33 9 5.66 9 6 C6.69 5.67 4.38 5.34 2 5 C2 52.52 2 100.04 2 149 C2.66 149 3.32 149 4 149 C4 148.34 4 147.68 4 147 C6.31 146.67 8.62 146.34 11 146 C9.33784732 147.33895632 7.67036393 148.67130142 6 150 C5.278125 150.5775 4.55625 151.155 3.8125 151.75 C2 153 2 153 0 153 C0 102.51 0 52.02 0 0 Z " fill="#FEC9C5" transform="translate(199,90)"/>
<path d="M0 0 C0.33 0 0.66 0 1 0 C1 50.49 1 100.98 1 153 C3.97 151.02 6.94 149.04 10 147 C10.66 147 11.32 147 12 147 C12 147.66 12 148.32 12 149 C10.68 149.33 9.36 149.66 8 150 C7.67 151.65 7.34 153.3 7 155 C4.36 155.33 1.72 155.66 -1 156 C-1 155.34 -1 154.68 -1 154 C-1.66 153.67 -2.32 153.34 -3 153 C-2.67 152.01 -2.34 151.02 -2 150 C-1.34 150 -0.68 150 0 150 C0 100.5 0 51 0 0 Z " fill="#CF171A" transform="translate(198,90)"/>
<path d="M0 0 C0.66 0 1.32 0 2 0 C2.05534912 1.13429443 2.11069824 2.26858887 2.16772461 3.43725586 C2.37554384 7.68104906 2.58702395 11.92465354 2.79956055 16.16821289 C2.89071514 17.9982422 2.980902 19.82832 3.07006836 21.65844727 C3.19905838 24.30238239 3.3316297 26.94611847 3.46484375 29.58984375 C3.50343002 30.39646957 3.5420163 31.2030954 3.58177185 32.03416443 C3.8560365 37.38776751 4.36512243 42.6767958 5 48 C3.35 48 1.7 48 0 48 C0 32.16 0 16.32 0 0 Z " fill="#FDE8E7" transform="translate(0,224)"/>
<path d="M0 0 C12.54 0 25.08 0 38 0 C38 0.66 38 1.32 38 2 C19.19 2.99 19.19 2.99 0 4 C-0.33 3.34 -0.66 2.68 -1 2 C-0.67 1.34 -0.34 0.68 0 0 Z " fill="#FDE6E4" transform="translate(64,0)"/>
<path d="M0 0 C0.69867188 0.1036084 1.39734375 0.2072168 2.1171875 0.31396484 C2.9009375 0.41515625 3.6846875 0.51634766 4.4921875 0.62060547 C5.3171875 0.75402344 6.1421875 0.88744141 6.9921875 1.02490234 C8.70034691 1.25795153 10.40868117 1.48972275 12.1171875 1.72021484 C12.94863281 1.84041992 13.78007813 1.960625 14.63671875 2.08447266 C18.65620343 2.62273698 22.69565674 2.82623582 26.7421875 3.05615234 C28.9921875 3.39990234 28.9921875 3.39990234 31.9921875 5.39990234 C19.4521875 5.39990234 6.9121875 5.39990234 -6.0078125 5.39990234 C-2.0078125 0.39990234 -2.0078125 0.39990234 0 0 Z " fill="#FCFDFB" transform="translate(43.0078125,326.60009765625)"/>
<path d="M0 0 C0.33 0 0.66 0 1 0 C1.0501123 0.69150146 1.10022461 1.38300293 1.15185547 2.09545898 C1.38308882 5.21029286 1.62884409 8.32381144 1.875 11.4375 C1.95363281 12.52611328 2.03226562 13.61472656 2.11328125 14.73632812 C2.19707031 15.77080078 2.28085937 16.80527344 2.3671875 17.87109375 C2.44050293 18.82943115 2.51381836 19.78776855 2.58935547 20.77514648 C2.72486816 21.50934814 2.86038086 22.2435498 3 23 C3.66 23.33 4.32 23.66 5 24 C4.67 31.59 4.34 39.18 4 47 C3.67 47 3.34 47 3 47 C1.52226006 35.60029192 0.71810115 24.49520875 1 13 C0.34 13 -0.32 13 -1 13 C-1.02686553 11.02090602 -1.04633375 9.04171029 -1.0625 7.0625 C-1.07410156 5.96035156 -1.08570312 4.85820312 -1.09765625 3.72265625 C-1 1 -1 1 0 0 Z " fill="#EB1D1E" transform="translate(1,211)"/>
<path d="M0 0 C7.96795733 -0.70826287 15.014074 2.3679729 22 6 C18.43318667 6.07133627 15.29736027 6.06996712 11.8125 5.25 C10.884375 5.1675 9.95625 5.085 9 5 C7.6256709 6.29103643 6.29103643 7.6256709 5 9 C2.25 9.25 2.25 9.25 0 9 C0 6.03 0 3.06 0 0 Z " fill="#FCF0EE" transform="translate(32,323)"/>
<path d="M0 0 C0.66 0 1.32 0 2 0 C2.33 0.66 2.66 1.32 3 2 C5.02463255 2.65213292 5.02463255 2.65213292 7 3 C7 3.66 7 4.32 7 5 C8.98 4.67 10.96 4.34 13 4 C13 5.32 13 6.64 13 8 C13.66 8 14.32 8 15 8 C15 8.99 15 9.98 15 11 C16.918125 11.185625 16.918125 11.185625 18.875 11.375 C22.75 11.75 22.75 11.75 25 14 C24.34 15.32 23.68 16.64 23 18 C15.08 12.72 7.16 7.44 -1 2 C-0.67 1.34 -0.34 0.68 0 0 Z " fill="#E91116" transform="translate(222,102)"/>
<path d="M0 0 C19.41299124 -0.41648849 38.83666826 0.7775435 58 4 C58 4.33 58 4.66 58 5 C55.18743719 5.02684312 52.37512759 5.04676188 49.5625 5.0625 C48.76005859 5.07087891 47.95761719 5.07925781 47.13085938 5.08789062 C45.08704779 5.0965143 43.04316098 5.0522815 41 5 C40.505 4.505 40.505 4.505 40 4 C38.32605988 3.78308447 36.64398721 3.62834149 34.9609375 3.5 C33.38687134 3.3769751 33.38687134 3.3769751 31.78100586 3.25146484 C30.65702393 3.16848145 29.53304199 3.08549805 28.375 3 C27.24392822 2.91314941 26.11285645 2.82629883 24.94750977 2.73681641 C16.63524565 2.10430348 8.32045253 1.51410926 0 1 C0 0.67 0 0.34 0 0 Z " fill="#DF181B" transform="translate(352,2)"/>
<path d="M0 0 C-7.72135426 5.14756951 -17.798726 4.16932174 -26.6875 3.625 C-28.33008789 3.53992188 -28.33008789 3.53992188 -30.00585938 3.453125 C-32.67140861 3.31344556 -35.33574579 3.16224728 -38 3 C-38 2.67 -38 2.34 -38 2 C-25.28660534 0.59218483 -12.79273087 -0.30179444 0 0 Z " fill="#E61C1C" transform="translate(102,2)"/>
<path d="M0 0 C7.92 0 15.84 0 24 0 C24 0.66 24 1.32 24 2 C29.61 2 35.22 2 41 2 C41.495 2.99 41.495 2.99 42 4 C27.99531704 3.41245698 13.99601386 2.76757602 0 2 C0 1.34 0 0.68 0 0 Z " fill="#FDCBCD" transform="translate(352,0)"/>
<path d="M0 0 C2.8724952 2.8724952 3.24278816 6.2824773 4.125 10.125 C4.30675781 10.85976563 4.48851562 11.59453125 4.67578125 12.3515625 C5.84594283 17.34894428 6.17449483 21.86985194 6 27 C6.66 27 7.32 27 8 27 C8 29.64 8 32.28 8 35 C7.34 35 6.68 35 6 35 C5.80083984 33.60974609 5.80083984 33.60974609 5.59765625 32.19140625 C5.42105469 30.99386719 5.24445313 29.79632813 5.0625 28.5625 C4.88847656 27.36753906 4.71445312 26.17257813 4.53515625 24.94140625 C4.31014787 22.12044324 4.31014787 22.12044324 3 21 C2.68076508 18.9427083 2.48838648 16.88386479 2.28125 14.8125 C2.18001957 12.9832467 2.18001957 12.9832467 1 12 C0.76572222 9.98405418 0.58663876 7.961526 0.4375 5.9375 C0.35371094 4.83277344 0.26992188 3.72804687 0.18359375 2.58984375 C0.09271484 1.30787109 0.09271484 1.30787109 0 0 Z " fill="#EC3839" transform="translate(466,48)"/>
<path d="M0 0 C0.99 0 1.98 0 3 0 C2.86722656 0.99257812 2.73445312 1.98515625 2.59765625 3.0078125 C1.42033943 11.99904114 0.53767594 20.94440528 0 30 C-0.66 30 -1.32 30 -2 30 C-2 24.72 -2 19.44 -2 14 C-1.34 14 -0.68 14 0 14 C0 9.38 0 4.76 0 0 Z " fill="#FDDCD4" transform="translate(2,72)"/>
<path d="M0 0 C6.04907673 2.85956354 11.50650211 6.18507091 17 10 C16.01 10.33 15.02 10.66 14 11 C10.8125 9.0625 10.8125 9.0625 8 7 C7.67 7.66 7.34 8.32 7 9 C5.68 9 4.36 9 3 9 C3 8.34 3 7.68 3 7 C2.34 6.67 1.68 6.34 1 6 C1 5.34 1 4.68 1 4 C0.68521554 2.66216607 0.35412344 1.32796291 0 0 Z " fill="#FDF1F0" transform="translate(265,133)"/>
<path d="M0 0 C8.53775428 2.23941096 16.9845014 6.47675211 22 14 C20.35 14 18.7 14 17 14 C16.67 13.01 16.34 12.02 16 11 C13.69 11 11.38 11 9 11 C9 10.34 9 9.68 9 9 C9.99 9 10.98 9 12 9 C8.54110281 4.82049923 5.01713599 3.67237866 0 2 C0 1.34 0 0.68 0 0 Z " fill="#E21418" transform="translate(431,13)"/>
<path d="M0 0 C-1 3 -1 3 -3 4 C-3 4.66 -3 5.32 -3 6 C-2.34 6.33 -1.68 6.66 -1 7 C-1.33 7.99 -1.66 8.98 -2 10 C-6 10 -10 10 -14 10 C-4.57142857 0 -4.57142857 0 0 0 Z " fill="#F20A0D" transform="translate(305,173)"/>
<path d="M0 0 C0 0.66 0 1.32 0 2 C-0.78503906 2.12117187 -1.57007812 2.24234375 -2.37890625 2.3671875 C-10.82977683 3.6221811 -10.82977683 3.6221811 -19 6 C-19.33 6.99 -19.66 7.98 -20 9 C-22.31 8.67 -24.62 8.34 -27 8 C-24.81871666 5.53129047 -23.14531705 4.48906772 -19.98046875 3.61328125 C-19.20509766 3.39736328 -18.42972656 3.18144531 -17.63085938 2.95898438 C-16.82455078 2.74564453 -16.01824219 2.53230469 -15.1875 2.3125 C-13.99543945 1.97508789 -13.99543945 1.97508789 -12.77929688 1.63085938 C-8.41337413 0.44277949 -4.56735239 -0.27212889 0 0 Z " fill="#DE2729" transform="translate(64,5)"/>
<path d="M0 0 C0.33 0 0.66 0 1 0 C1 9.9 1 19.8 1 30 C1.66 30 2.32 30 3 30 C3 29.34 3 28.68 3 28 C6.465 27.505 6.465 27.505 10 27 C6.61418999 29.90212286 4.26511313 31.29395475 0 33 C0 22.11 0 11.22 0 0 Z " fill="#FFF0EB" transform="translate(200,209)"/>
<path d="M0 0 C0.886875 0.309375 1.77375 0.61875 2.6875 0.9375 C5.469765 1.82992462 8.14056236 2.44399824 11 3 C11.66 3.33 12.32 3.66 13 4 C12.01 5.485 12.01 5.485 11 7 C11.66 7.33 12.32 7.66 13 8 C10.09399739 9.25664978 8.20395416 10 5 10 C5 10.99 5 11.98 5 13 C3.02 13.33 1.04 13.66 -1 14 C2 11 5 8 8 5 C6.8553125 4.5978125 6.8553125 4.5978125 5.6875 4.1875 C3.12619116 3.05575888 1.80307062 2.08776599 0 0 Z " fill="#E8151A" transform="translate(306,159)"/>
<path d="M0 0 C0.66 0 1.32 0 2 0 C2.33 0.66 2.66 1.32 3 2 C4.32 1.34 5.64 0.68 7 0 C6.62488281 0.66644531 6.24976563 1.33289063 5.86328125 2.01953125 C2.23859977 8.54760998 -1.00954295 15.1589987 -4 22 C-4.33 22 -4.66 22 -5 22 C-5 20.35 -5 18.7 -5 17 C-4.34 17 -3.68 17 -3 17 C-2.34 14.03 -1.68 11.06 -1 8 C-0.34 8 0.32 8 1 8 C0.67 7.34 0.34 6.68 0 6 C-0.039992 4.00039988 -0.04346799 1.99952758 0 0 Z " fill="#FDDEDB" transform="translate(16,24)"/>
<path d="M0 0 C0.33 0 0.66 0 1 0 C1.23181842 7.66503317 0.52375362 15.03446642 -0.5 22.625 C-0.64308594 23.72457031 -0.78617187 24.82414062 -0.93359375 25.95703125 C-1.28339234 28.63882045 -1.63895723 31.31970553 -2 34 C-2.66 34 -3.32 34 -4 34 C-4 31.36 -4 28.72 -4 26 C-3.34 26 -2.68 26 -2 26 C-2.02320313 25.12859375 -2.04640625 24.2571875 -2.0703125 23.359375 C-2.19188486 15.33559895 -1.61242385 7.86056627 0 0 Z " fill="#EA2F31" transform="translate(4,76)"/>
<path d="M0 0 C0 0.66 0 1.32 0 2 C-0.639375 2.28875 -1.27875 2.5775 -1.9375 2.875 C-4.15206079 3.82823451 -4.15206079 3.82823451 -5 6 C-5.99 6 -6.98 6 -8 6 C-8.33 6.99 -8.66 7.98 -9 9 C-12.0051552 11.39046436 -14.00672335 12.91362812 -17.875 13.25 C-18.57625 13.1675 -19.2775 13.085 -20 13 C-16.84018419 9.68240418 -13.23926671 7.33382305 -9.4375 4.8125 C-8.75236328 4.34908203 -8.06722656 3.88566406 -7.36132812 3.40820312 C-2.24651372 0 -2.24651372 0 0 0 Z " fill="#E11C24" transform="translate(244,215)"/>
<path d="M0 0 C-2.22460313 1.63157631 -4.45427568 3.25529885 -6.6875 4.875 C-7.31333984 5.33519531 -7.93917969 5.79539063 -8.58398438 6.26953125 C-11.94677471 8.69919128 -15.02138756 10.67633162 -19 12 C-17.31787041 6.95361124 -13.18003686 4.19493048 -8.60546875 1.6875 C-2.39968619 -1.1998431 -2.39968619 -1.1998431 0 0 Z " fill="#FEE2DC" transform="translate(264,201)"/>
<path d="M0 0 C3.78632167 0.51166509 5.50789954 1.12499869 8 4 C8.9475242 5.42528992 9.84191258 6.88696929 10.6875 8.375 C11.34298828 9.50035156 11.34298828 9.50035156 12.01171875 10.6484375 C13.11599474 13.27600329 13.18446068 15.17825015 13 18 C7 10.28571429 7 10.28571429 7 7 C6.34 7 5.68 7 5 7 C3.7109375 5.46875 3.7109375 5.46875 2.375 3.5 C1.70597656 2.52546875 1.70597656 2.52546875 1.0234375 1.53125 C0.68570312 1.0259375 0.34796875 0.520625 0 0 Z " fill="#FEE2DC" transform="translate(452,25)"/>
<path d="M0 0 C0 0.66 0 1.32 0 2 C-1.32 2.33 -2.64 2.66 -4 3 C-4.33 4.65 -4.66 6.3 -5 8 C-7.64 8.33 -10.28 8.66 -13 9 C-13 8.34 -13 7.68 -13 7 C-13.66 6.67 -14.32 6.34 -15 6 C-14.34 5.01 -13.68 4.02 -13 3 C-12.67 3.66 -12.34 4.32 -12 5 C-7.42602709 4.29631186 -4.38458102 0 0 0 Z " fill="#E91213" transform="translate(210,237)"/>
<path d="M0 0 C2.2655874 7.39983224 -2.1400454 15.22496192 -5 22 C-6.4184297 17.53942813 -5.06832829 14.16659847 -3.625 9.875 C-3.39039063 9.14667969 -3.15578125 8.41835938 -2.9140625 7.66796875 C-1.20076885 2.4015377 -1.20076885 2.4015377 0 0 Z " fill="#E71F20" transform="translate(13,42)"/>
<path d="M0 0 C3 1 3 1 3.94921875 2.7421875 C4.19285156 3.44601562 4.43648437 4.14984375 4.6875 4.875 C4.93886719 5.57367188 5.19023437 6.27234375 5.44921875 6.9921875 C6 9 6 9 6 12 C6.99 12.33 7.98 12.66 9 13 C9.94921875 15.06640625 9.94921875 15.06640625 10.6875 17.5625 C10.93886719 18.38878906 11.19023437 19.21507812 11.44921875 20.06640625 C11.63097656 20.70449219 11.81273437 21.34257812 12 22 C7.73426289 18.19104303 5.47533603 14.51947339 3.1875 9.3125 C2.87619141 8.63638672 2.56488281 7.96027344 2.24414062 7.26367188 C0 2.30683379 0 2.30683379 0 0 Z " fill="#DD1B22" transform="translate(11,288)"/>
<path d="M0 0 C2.93832645 0.11381897 5.8751065 0.24056551 8.8125 0.375 C10.06256836 0.42140625 10.06256836 0.42140625 11.33789062 0.46875 C12.14033203 0.50742187 12.94277344 0.54609375 13.76953125 0.5859375 C14.87711792 0.63306885 14.87711792 0.63306885 16.00708008 0.68115234 C18 1 18 1 21 3 C17.87517438 3.08687496 14.75065754 3.14034568 11.625 3.1875 C10.29082031 3.22520508 10.29082031 3.22520508 8.9296875 3.26367188 C7.65351562 3.27817383 7.65351562 3.27817383 6.3515625 3.29296875 C5.17327881 3.31653442 5.17327881 3.31653442 3.97119141 3.34057617 C3.32069824 3.22818604 2.67020508 3.1157959 2 3 C1.34 2.01 0.68 1.02 0 0 Z " fill="#FEC5C2" transform="translate(54,329)"/>
<path d="M0 0 C0.35412344 1.32796291 0.68521554 2.66216607 1 4 C2.97901574 6.22977996 2.97901574 6.22977996 5 8 C1.40241608 6.67726488 -1.63737135 5.0805802 -4.8125 2.9375 C-5.60269531 2.41027344 -6.39289063 1.88304687 -7.20703125 1.33984375 C-7.79871094 0.89769531 -8.39039063 0.45554688 -9 0 C-9 -0.33 -9 -0.66 -9 -1 C-5.30729773 -2.02575063 -3.15786978 -2.36840234 0 0 Z " fill="#E51A1C" transform="translate(271,131)"/>
<path d="M0 0 C0 0.99 0 1.98 0 3 C-0.99 3.495 -0.99 3.495 -2 4 C-2.33 4.99 -2.66 5.98 -3 7 C-3.721875 7.4125 -4.44375 7.825 -5.1875 8.25 C-8.90870215 10.56541467 -11.28934135 13.60003296 -14 17 C-14 12.65767627 -11.78696747 10.12420326 -9 7 C-6.10834849 4.50969812 -3.10087488 2.22263145 0 0 Z " fill="#D91C1F" transform="translate(35,13)"/>
<path d="M0 0 C1.65 0 3.3 0 5 0 C2.70479977 4.72541224 -0.49666217 7.44991713 -5 10 C-5.66 10 -6.32 10 -7 10 C-7 9.01 -7 8.02 -7 7 C-5.35 6.67 -3.7 6.34 -2 6 C-2 5.01 -2 4.02 -2 3 C-1.34 2.67 -0.68 2.34 0 2 C0 1.34 0 0.68 0 0 Z " fill="#E01B1C" transform="translate(445,313)"/>
<path d="M0 0 C1.96035175 0.44962196 3.91824309 0.90998248 5.875 1.375 C7.51082031 1.75785156 7.51082031 1.75785156 9.1796875 2.1484375 C12 3 12 3 14 5 C13.34 6.32 12.68 7.64 12 9 C9.997193 7.69161864 7.99773901 6.37857806 6 5.0625 C5.42765625 4.68931641 4.8553125 4.31613281 4.265625 3.93164062 C2.82614271 2.98055411 1.41085511 1.99305724 0 1 C0 0.67 0 0.34 0 0 Z " fill="#E11918" transform="translate(233,111)"/>
<path d="M0 0 C2 1.375 2 1.375 4 3 C4 3.66 4 4.32 4 5 C4.66 5 5.32 5 6 5 C7.32421875 6.6796875 7.32421875 6.6796875 8.6875 8.875 C9.14511719 9.59429687 9.60273438 10.31359375 10.07421875 11.0546875 C10.53248047 12.01761719 10.53248047 12.01761719 11 13 C10.67 13.66 10.34 14.32 10 15 C9.34 13.68 8.68 12.36 8 11 C6.68 11 5.36 11 4 11 C3.71125 10.113125 3.4225 9.22625 3.125 8.3125 C2.16851252 5.49617576 1.13201054 2.74916844 0 0 Z " fill="#E01F25" transform="translate(453,27)"/>
<path d="M0 0 C2.64 0 5.28 0 8 0 C8 0.66 8 1.32 8 2 C9.27875 1.979375 10.5575 1.95875 11.875 1.9375 C15.75 1.875 15.75 1.875 18 3 C18 3.99 18 4.98 18 6 C11.98922864 4.36959185 5.98336072 2.72852643 0 1 C0 0.67 0 0.34 0 0 Z " fill="#FDC6BF" transform="translate(414,7)"/>
<path d="M0 0 C0 3.7938847 -0.50637804 5.12855653 -3 8 C-5.99188481 8.73736168 -8.92568213 8.92910378 -12 9 C-8 6 -4 3 0 0 Z " fill="#FDD5CF" transform="translate(448,316)"/>
<path d="M0 0 C0.33 0 0.66 0 1 0 C1.625 3.375 1.625 3.375 2 7 C1.34 7.66 0.68 8.32 0 9 C-0.99 9 -1.98 9 -3 9 C-3.33 9.99 -3.66 10.98 -4 12 C-4.33 11.34 -4.66 10.68 -5 10 C-4.00390625 7.6171875 -4.00390625 7.6171875 -2.5625 4.875 C-1.85287109 3.50988281 -1.85287109 3.50988281 -1.12890625 2.1171875 C-0.75636719 1.41851563 -0.38382813 0.71984375 0 0 Z " fill="#E4181B" transform="translate(19,30)"/>
<path d="M0 0 C0.66 0.33 1.32 0.66 2 1 C1.67 2.32 1.34 3.64 1 5 C-1.31 5.33 -3.62 5.66 -6 6 C-6 6.66 -6 7.32 -6 8 C-7.32 7.67 -8.64 7.34 -10 7 C-6.7 4.69 -3.4 2.38 0 0 Z " fill="#E2191A" transform="translate(254,207)"/>
<path d="M0 0 C0.99 0 1.98 0 3 0 C2.34 5.28 1.68 10.56 1 16 C0.67 16 0.34 16 0 16 C0 10.72 0 5.44 0 0 Z " fill="#FBC4BC" transform="translate(2,72)"/>
<path d="M0 0 C3.42931954 3.7559214 4.56429083 8.23466745 6 13 C3 12 3 12 1 9 C0.5859375 6.73828125 0.5859375 6.73828125 0.375 4.3125 C0.30023438 3.50425781 0.22546875 2.69601562 0.1484375 1.86328125 C0.09945313 1.24839844 0.05046875 0.63351562 0 0 Z " fill="#FDD5CE" transform="translate(11,290)"/>
<path d="M0 0 C4.455 0.99 4.455 0.99 9 2 C9 2.99 9 3.98 9 5 C9.66 5 10.32 5 11 5 C10.67 5.99 10.34 6.98 10 8 C8.33055479 6.85821872 6.6645052 5.71147095 5 4.5625 C4.071875 3.92441406 3.14375 3.28632812 2.1875 2.62890625 C1.465625 2.09136719 0.74375 1.55382812 0 1 C0 0.67 0 0.34 0 0 Z " fill="#E52020" transform="translate(250,122)"/>
<path d="M0 0 C1 3 1 3 0.22265625 5.04296875 C-0.16019531 5.75066406 -0.54304688 6.45835937 -0.9375 7.1875 C-1.31777344 7.90292969 -1.69804687 8.61835938 -2.08984375 9.35546875 C-2.54037109 10.16951172 -2.54037109 10.16951172 -3 11 C-5 9 -5 9 -5.125 5.875 C-5.08375 4.92625 -5.0425 3.9775 -5 3 C-4.34 3 -3.68 3 -3 3 C-1.37485532 1.54166642 -1.37485532 1.54166642 0 0 Z " fill="#E71313" transform="translate(463,288)"/>
<path d="M0 0 C0.66 0.33 1.32 0.66 2 1 C-0.8437209 5.85105329 -5.21313431 7.21396096 -10.4375 8.6875 C-10.953125 8.790625 -11.46875 8.89375 -12 9 C-9.67350413 6.49280542 -7.17318479 4.67816399 -4.3125 2.8125 C-3.50425781 2.28269531 -2.69601563 1.75289062 -1.86328125 1.20703125 C-1.24839844 0.80871094 -0.63351563 0.41039062 0 0 Z " fill="#DD2326" transform="translate(222,228)"/>
<path d="M0 0 C-2.88087546 2.40072955 -5.56404834 4.47291037 -9 6 C-9.33 5.01 -9.66 4.02 -10 3 C-7.29536552 -0.8183075 -4.37912428 -0.24787496 0 0 Z " fill="#FDE8DE" transform="translate(227,225)"/>
<path d="M0 0 C0.8971875 0.309375 0.8971875 0.309375 1.8125 0.625 C0.52533353 1.63078589 -0.76738658 2.62946798 -2.0625 3.625 C-3.14144531 4.4603125 -3.14144531 4.4603125 -4.2421875 5.3125 C-6.1875 6.625 -6.1875 6.625 -8.1875 6.625 C-8.1875 5.965 -8.1875 5.305 -8.1875 4.625 C-7.5275 4.625 -6.8675 4.625 -6.1875 4.625 C-5.8575 3.635 -5.5275 2.645 -5.1875 1.625 C-2.1875 -0.375 -2.1875 -0.375 0 0 Z " fill="#FEDBD6" transform="translate(305.1875,170.375)"/>
<path d="M0 0 C2.12966005 2.12966005 2.47624662 3.04068204 3.1875 5.875 C3.36667969 6.55304687 3.54585938 7.23109375 3.73046875 7.9296875 C4.02970718 10.22818556 3.69377386 11.80550964 3 14 C0.31907309 11.31907309 0.61329743 9.60832637 0.375 5.875 C0.30023438 4.77929688 0.22546875 3.68359375 0.1484375 2.5546875 C0.09945313 1.71164063 0.05046875 0.86859375 0 0 Z " fill="#E12429" transform="translate(466,48)"/>
<path d="M0 0 C0.99 0.33 1.98 0.66 3 1 C1.3790787 2.17232685 -0.24686833 3.3377077 -1.875 4.5 C-2.77992188 5.1496875 -3.68484375 5.799375 -4.6171875 6.46875 C-7 8 -7 8 -9 8 C-8.67 7.01 -8.34 6.02 -8 5 C-6.35 4.67 -4.7 4.34 -3 4 C-2.67 3.01 -2.34 2.02 -2 1 C-1.34 0.67 -0.68 0.34 0 0 Z " fill="#FEDAD2" transform="translate(273,192)"/>
<path d="M0 0 C-3.19990508 2.74277578 -6.00499382 4.6302836 -10 6 C-10 5.01 -10 4.02 -10 3 C-9.01 3 -8.02 3 -7 3 C-7 2.34 -7 1.68 -7 1 C-4.53721199 -0.231394 -2.7204945 -0.07159196 0 0 Z " fill="#FFDAD5" transform="translate(210,236)"/>
<path d="M0 0 C-1.24993996 3.74981988 -2.7230706 4.86618551 -6 7 C-8.16796875 6.609375 -8.16796875 6.609375 -10 6 C-8.71283353 4.99421411 -7.42011342 3.99553202 -6.125 3 C-5.40570313 2.443125 -4.68640625 1.88625 -3.9453125 1.3125 C-2 0 -2 0 0 0 Z " fill="#E31D23" transform="translate(305,173)"/>
<path d="M0 0 C-0.33 2.31 -0.66 4.62 -1 7 C-2.98 6.01 -4.96 5.02 -7 4 C-2.25 0 -2.25 0 0 0 Z " fill="#EA1114" transform="translate(301,148)"/>
<path d="M0 0 C3.40312738 1.05875074 6.01353231 2.00902154 9 4 C8.67 4.66 8.34 5.32 8 6 C5.36 5.01 2.72 4.02 0 3 C0 2.01 0 1.02 0 0 Z " fill="#F60406" transform="translate(434,16)"/>
<path d="M0 0 C-1.175625 0.928125 -1.175625 0.928125 -2.375 1.875 C-4.96837647 3.89858661 -4.96837647 3.89858661 -7 6 C-8.125 2.25 -8.125 2.25 -7 0 C-3.86650268 -1.04449911 -3.01031744 -0.93423645 0 0 Z " fill="#FDD9D9" transform="translate(31,17)"/>
<path d="M0 0 C1.98 0.99 3.96 1.98 6 3 C4.95125002 5.62187494 4.35068687 6.79371361 1.875 8.25 C1.25625 8.4975 0.6375 8.745 0 9 C0 8.01 0 7.02 0 6 C0.99 6 1.98 6 3 6 C2.67 4.68 2.34 3.36 2 2 C1.34 2 0.68 2 0 2 C0 1.34 0 0.68 0 0 Z " fill="#FECBC6" transform="translate(308,161)"/>
<path d="M0 0 C1.98 0.99 3.96 1.98 6 3 C5.34 3.66 4.68 4.32 4 5 C2.68 5 1.36 5 0 5 C0 5.66 0 6.32 0 7 C-0.66 6.67 -1.32 6.34 -2 6 C-2 4 -2 4 0 2 C0 1.34 0 0.68 0 0 Z " fill="#FDECED" transform="translate(259,129)"/>
<path d="M0 0 C3.96 1.98 3.96 1.98 8 4 C8 4.33 8 4.66 8 5 C5.69 4.67 3.38 4.34 1 4 C0.67 4.66 0.34 5.32 0 6 C0 4.02 0 2.04 0 0 Z " fill="#FEE3E1" transform="translate(200,91)"/>
<path d="M0 0 C0.66 0 1.32 0 2 0 C2 1.32 2 2.64 2 4 C1.34 4 0.68 4 0 4 C0 7.3 0 10.6 0 14 C-0.33 14 -0.66 14 -1 14 C-1.02685938 11.85423363 -1.04633088 9.70837355 -1.0625 7.5625 C-1.07410156 6.36753906 -1.08570313 5.17257813 -1.09765625 3.94140625 C-1 1 -1 1 0 0 Z " fill="#EF2A2C" transform="translate(472,244)"/>
<path d="M0 0 C0.99 0.33 1.98 0.66 3 1 C4.0448758 5.62730711 4.51756279 10.28853878 5 15 C4.67 15 4.34 15 4 15 C3.3299166 12.87607494 2.66403203 10.75082476 2 8.625 C1.62875 7.44164062 1.2575 6.25828125 0.875 5.0390625 C0 2 0 2 0 0 Z " fill="#FED7CF" transform="translate(465,43)"/>
<path d="M0 0 C2.375 0.25 2.375 0.25 5 1 C6.3125 3.0625 6.3125 3.0625 7 5 C6.34 5.66 5.68 6.32 5 7 C3.35 4.69 1.7 2.38 0 0 Z " fill="#FDDAD2" transform="translate(452,25)"/>
<path d="M0 0 C0.75 1.6875 0.75 1.6875 1 4 C-0.8125 6.75 -0.8125 6.75 -3 9 C-3.66 9 -4.32 9 -5 9 C-3.7508258 5.54074837 -2.32472205 2.85306797 0 0 Z " fill="#FDCFC7" transform="translate(454,307)"/>
<path d="M0 0 C0.33 0.66 0.66 1.32 1 2 C-2.07999946 5.67230705 -4.2482602 6.56802365 -9 7 C-6.3765992 4.08511023 -3.28183606 2.11496102 0 0 Z " fill="#DD2124" transform="translate(275,193)"/>
<path d="M0 0 C1.32 0.33 2.64 0.66 4 1 C2.87926138 1.83905565 1.75325453 2.67107831 0.625 3.5 C-0.00148438 3.9640625 -0.62796875 4.428125 -1.2734375 4.90625 C-3 6 -3 6 -5 6 C-5 5.34 -5 4.68 -5 4 C-3.35 3.34 -1.7 2.68 0 2 C0 1.34 0 0.68 0 0 Z " fill="#FED7D1" transform="translate(285,183)"/>
<path d="M0 0 C3.3 1.98 6.6 3.96 10 6 C9.01 6.33 8.02 6.66 7 7 C1.26229508 3.78688525 1.26229508 3.78688525 0 0 Z " fill="#FED8CB" transform="translate(272,137)"/>
<path d="M0 0 C2.97 1.65 5.94 3.3 9 5 C6 6 6 6 3 6 C2.67 4.68 2.34 3.36 2 2 C1.34 2 0.68 2 0 2 C0 1.34 0 0.68 0 0 Z " fill="#FDDCD3" transform="translate(230,110)"/>
<path d="M0 0 C2.6875 0.3125 2.6875 0.3125 5 1 C4.67 1.99 4.34 2.98 4 4 C1.69 3.67 -0.62 3.34 -3 3 C-1.8125 1.4375 -1.8125 1.4375 0 0 Z " fill="#E4191C" transform="translate(40,10)"/>
<path d="M0 0 C1.14926266 0.95421808 2.29430541 1.91352045 3.4375 2.875 C4.07558594 3.40867187 4.71367187 3.94234375 5.37109375 4.4921875 C7 6 7 6 8 8 C5.6875 7.8125 5.6875 7.8125 3 7 C0 2.96551724 0 2.96551724 0 0 Z " fill="#FED9D3" transform="translate(22,310)"/>
<path d="M0 0 C0.99 0 1.98 0 3 0 C3.33 1.65 3.66 3.3 4 5 C2.68 5 1.36 5 0 5 C0 3.35 0 1.7 0 0 Z " fill="#ED0505" transform="translate(244,215)"/>
<path d="M0 0 C0 0.66 0 1.32 0 2 C-2.25 4.1875 -2.25 4.1875 -5 6 C-7.171875 5.61328125 -7.171875 5.61328125 -9 5 C-7.87926138 4.16094435 -6.75325453 3.32892169 -5.625 2.5 C-4.99851562 2.0359375 -4.37203125 1.571875 -3.7265625 1.09375 C-2 0 -2 0 0 0 Z " fill="#E6171D" transform="translate(291,183)"/>
<path d="M0 0 C1.32 0 2.64 0 4 0 C3.34 1.32 2.68 2.64 2 4 C0.68 4 -0.64 4 -2 4 C-1.34 2.68 -0.68 1.36 0 0 Z " fill="#F00700" transform="translate(282,134)"/>
<path d="M0 0 C0.33 1.32 0.66 2.64 1 4 C-2.75 7 -2.75 7 -5 7 C-5 6.01 -5 5.02 -5 4 C-3.35 3.67 -1.7 3.34 0 3 C0 2.01 0 1.02 0 0 Z " fill="#E50B13" transform="translate(443,316)"/>
<path d="M0 0 C3.875 4.75 3.875 4.75 5 7 C3.35 7 1.7 7 0 7 C0 4.69 0 2.38 0 0 Z " fill="#FCDFDC" transform="translate(17,303)"/>
</svg>
